solid OpenSCAD_Model
  facet normal 0 0 -1
    outer loop
      vertex -10 0 -50
      vertex -9.78148 2.07912 -50
      vertex -9.78148 -2.07912 -50
    endloop
  endfacet
  facet normal 0 0 -1
    outer loop
      vertex -9.78148 -2.07912 -50
      vertex -9.78148 2.07912 -50
      vertex -9.13546 4.06737 -50
    endloop
  endfacet
  facet normal 0 0 -1
    outer loop
      vertex -9.78148 -2.07912 -50
      vertex -9.13546 4.06737 -50
      vertex -8.09017 5.87785 -50
    endloop
  endfacet
  facet normal 0 0 -1
    outer loop
      vertex -9.78148 -2.07912 -50
      vertex -8.09017 5.87785 -50
      vertex -6.69131 7.43145 -50
    endloop
  endfacet
  facet normal 0 0 -1
    outer loop
      vertex -9.78148 -2.07912 -50
      vertex -6.69131 7.43145 -50
      vertex -5 8.66025 -50
    endloop
  endfacet
  facet normal 0 0 -1
    outer loop
      vertex -9.78148 -2.07912 -50
      vertex -5 8.66025 -50
      vertex -3.09017 9.51056 -50
    endloop
  endfacet
  facet normal 0 0 -1
    outer loop
      vertex -9.78148 -2.07912 -50
      vertex -3.09017 9.51056 -50
      vertex -1.04529 9.94522 -50
    endloop
  endfacet
  facet normal 0 0 -1
    outer loop
      vertex -9.78148 -2.07912 -50
      vertex -1.04529 9.94522 -50
      vertex 0.00575772 9.94522 -50
    endloop
  endfacet
  facet normal 0 0 -1
    outer loop
      vertex 0.00575772 9.94522 -50
      vertex 0 10 -50
      vertex 0.00575772 10.0548 -50
    endloop
  endfacet
  facet normal 0 0 -1
    outer loop
      vertex -1.04529 10.0548 -50
      vertex -3.09017 10.4894 -50
      vertex 0.00575772 10.0548 -50
    endloop
  endfacet
  facet normal 0 0 -1
    outer loop
      vertex -3.09017 10.4894 -50
      vertex -5 11.3397 -50
      vertex 0.00575772 10.0548 -50
    endloop
  endfacet
  facet normal 0 0 -1
    outer loop
      vertex -5 11.3397 -50
      vertex -6.69131 12.5686 -50
      vertex 0.00575772 10.0548 -50
    endloop
  endfacet
  facet normal 0 0 -1
    outer loop
      vertex -6.69131 12.5686 -50
      vertex -8.09017 14.1221 -50
      vertex 0.00575772 10.0548 -50
    endloop
  endfacet
  facet normal 0 0 -1
    outer loop
      vertex 0.00575772 10.0548 -50
      vertex -8.09017 14.1221 -50
      vertex -9.13546 15.9326 -50
    endloop
  endfacet
  facet normal 0 0 -1
    outer loop
      vertex -9.13546 15.9326 -50
      vertex -9.78148 17.9209 -50
      vertex 0.00575772 10.0548 -50
    endloop
  endfacet
  facet normal 0 0 -1
    outer loop
      vertex 0.00575772 10.0548 -50
      vertex -9.78148 17.9209 -50
      vertex -10 20 -50
    endloop
  endfacet
  facet normal 0 0 -1
    outer loop
      vertex 0.00575772 10.0548 -50
      vertex -10 20 -50
      vertex -9.78148 22.0791 -50
    endloop
  endfacet
  facet normal 0 0 -1
    outer loop
      vertex 0.00575772 10.0548 -50
      vertex -9.78148 22.0791 -50
      vertex -9.13546 24.0674 -50
    endloop
  endfacet
  facet normal 0 0 -1
    outer loop
      vertex 0.00575772 10.0548 -50
      vertex -9.13546 24.0674 -50
      vertex -8.09017 25.8779 -50
    endloop
  endfacet
  facet normal 0 0 -1
    outer loop
      vertex 0.00575772 10.0548 -50
      vertex -8.09017 25.8779 -50
      vertex -6.69131 27.4314 -50
    endloop
  endfacet
  facet normal 0 0 -1
    outer loop
      vertex 0.00575772 10.0548 -50
      vertex -6.69131 27.4314 -50
      vertex -5 28.6603 -50
    endloop
  endfacet
  facet normal 0 0 -1
    outer loop
      vertex 0.00575772 10.0548 -50
      vertex -5 28.6603 -50
      vertex -3.09017 29.5106 -50
    endloop
  endfacet
  facet normal 0 0 -1
    outer loop
      vertex 0.00575772 10.0548 -50
      vertex -3.09017 29.5106 -50
      vertex -1.04529 29.9452 -50
    endloop
  endfacet
  facet normal 0 0 -1
    outer loop
      vertex 0.00575772 10.0548 -50
      vertex -1.04529 29.9452 -50
      vertex 1.04529 29.9452 -50
    endloop
  endfacet
  facet normal 0 0 -1
    outer loop
      vertex 0.00575772 10.0548 -50
      vertex 1.04529 29.9452 -50
      vertex 0.00575772 9.94522 -50
    endloop
  endfacet
  facet normal 0 0 -1
    outer loop
      vertex 0.00575772 9.94522 -50
      vertex 1.04529 29.9452 -50
      vertex 3.09017 29.5106 -50
    endloop
  endfacet
  facet normal 0 0 -1
    outer loop
      vertex 0.00575772 9.94522 -50
      vertex 3.09017 29.5106 -50
      vertex 4.80812 28.7457 -50
    endloop
  endfacet
  facet normal 0 0 -1
    outer loop
      vertex 0.00575772 9.94522 -50
      vertex 4.80812 28.7457 -50
      vertex 5.96674 30.0325 -50
    endloop
  endfacet
  facet normal 0 0 -1
    outer loop
      vertex 5.96674 30.0325 -50
      vertex 6.71507 30.5761 -50
      vertex 0.00575772 9.94522 -50
    endloop
  endfacet
  facet normal 0 0 -1
    outer loop
      vertex 5 31.3397 -50
      vertex 3.30869 32.5686 -50
      vertex 6.71507 30.5761 -50
    endloop
  endfacet
  facet normal 0 0 -1
    outer loop
      vertex 3.30869 32.5686 -50
      vertex 1.90983 34.1221 -50
      vertex 6.71507 30.5761 -50
    endloop
  endfacet
  facet normal 0 0 -1
    outer loop
      vertex 1.90983 34.1221 -50
      vertex 0.864545 35.9326 -50
      vertex 6.71507 30.5761 -50
    endloop
  endfacet
  facet normal 0 0 -1
    outer loop
      vertex 0.864545 35.9326 -50
      vertex 0.218524 37.9209 -50
      vertex 6.71507 30.5761 -50
    endloop
  endfacet
  facet normal 0 0 -1
    outer loop
      vertex 6.71507 30.5761 -50
      vertex 0.218524 37.9209 -50
      vertex 0 40 -50
    endloop
  endfacet
  facet normal 0 0 -1
    outer loop
      vertex 0 40 -50
      vertex 0.218524 42.0791 -50
      vertex 6.71507 30.5761 -50
    endloop
  endfacet
  facet normal 0 0 -1
    outer loop
      vertex 6.71507 30.5761 -50
      vertex 0.218524 42.0791 -50
      vertex 0.864545 44.0674 -50
    endloop
  endfacet
  facet normal 0 0 -1
    outer loop
      vertex 6.71507 30.5761 -50
      vertex 0.864545 44.0674 -50
      vertex 1.90983 45.8779 -50
    endloop
  endfacet
  facet normal 0 0 -1
    outer loop
      vertex 6.71507 30.5761 -50
      vertex 1.90983 45.8779 -50
      vertex 3.30869 47.4314 -50
    endloop
  endfacet
  facet normal 0 0 -1
    outer loop
      vertex 6.71507 30.5761 -50
      vertex 3.30869 47.4314 -50
      vertex 5 48.6603 -50
    endloop
  endfacet
  facet normal 0 0 -1
    outer loop
      vertex 6.71507 30.5761 -50
      vertex 5 48.6603 -50
      vertex 6.90983 49.5106 -50
    endloop
  endfacet
  facet normal 0 0 -1
    outer loop
      vertex 6.71507 30.5761 -50
      vertex 6.90983 49.5106 -50
      vertex 8.95471 49.9452 -50
    endloop
  endfacet
  facet normal 0 0 -1
    outer loop
      vertex 6.71507 30.5761 -50
      vertex 8.95471 49.9452 -50
      vertex 11.0453 49.9452 -50
    endloop
  endfacet
  facet normal 0 0 -1
    outer loop
      vertex 6.71507 30.5761 -50
      vertex 11.0453 49.9452 -50
      vertex 13.0902 49.5106 -50
    endloop
  endfacet
  facet normal 0 0 -1
    outer loop
      vertex 6.71507 30.5761 -50
      vertex 13.0902 49.5106 -50
      vertex 0.00575772 9.94522 -50
    endloop
  endfacet
  facet normal 0 0 -1
    outer loop
      vertex 0.00575772 9.94522 -50
      vertex 13.0902 49.5106 -50
      vertex 15 48.6603 -50
    endloop
  endfacet
  facet normal 0 0 -1
    outer loop
      vertex 0.00575772 9.94522 -50
      vertex 15 48.6603 -50
      vertex 16.6913 47.4314 -50
    endloop
  endfacet
  facet normal 0 0 -1
    outer loop
      vertex 0.00575772 9.94522 -50
      vertex 16.6913 47.4314 -50
      vertex 18.0902 45.8779 -50
    endloop
  endfacet
  facet normal 0 0 -1
    outer loop
      vertex 0.00575772 9.94522 -50
      vertex 18.0902 45.8779 -50
      vertex 19.1355 44.0674 -50
    endloop
  endfacet
  facet normal 0 0 -1
    outer loop
      vertex 0.00575772 9.94522 -50
      vertex 19.1355 44.0674 -50
      vertex 19.7815 42.0791 -50
    endloop
  endfacet
  facet normal 0 0 -1
    outer loop
      vertex 0.00575772 9.94522 -50
      vertex 19.7815 42.0791 -50
      vertex 20 40 -50
    endloop
  endfacet
  facet normal 0 0 -1
    outer loop
      vertex 0.00575772 9.94522 -50
      vertex 20 40 -50
      vertex 19.7815 37.9209 -50
    endloop
  endfacet
  facet normal 0 0 -1
    outer loop
      vertex 0.00575772 9.94522 -50
      vertex 19.7815 37.9209 -50
      vertex 19.1355 35.9326 -50
    endloop
  endfacet
  facet normal 0 0 -1
    outer loop
      vertex 17.2944 33.2383 -50
      vertex 19.1355 35.9326 -50
      vertex 18.0902 34.1221 -50
    endloop
  endfacet
  facet normal 0 0 -1
    outer loop
      vertex 0.00575772 9.94522 -50
      vertex 19.1355 35.9326 -50
      vertex 17.2944 33.2383 -50
    endloop
  endfacet
  facet normal 0 0 -1
    outer loop
      vertex 17.963 -11.1472 -50
      vertex 26.4321 -14.9178 -50
      vertex 20.5 -12.9904 -50
    endloop
  endfacet
  facet normal 0 0 -1
    outer loop
      vertex 0.00575772 9.94522 -50
      vertex 19.1717 32.8393 -50
      vertex -9.78148 -2.07912 -50
    endloop
  endfacet
  facet normal 0 0 -1
    outer loop
      vertex 19.1717 32.8393 -50
      vertex 21.75 31.6913 -50
      vertex -9.78148 -2.07912 -50
    endloop
  endfacet
  facet normal 0 0 -1
    outer loop
      vertex 21.75 31.6913 -50
      vertex 24.0333 30.0325 -50
      vertex -9.78148 -2.07912 -50
    endloop
  endfacet
  facet normal 0 0 -1
    outer loop
      vertex 24.0333 30.0325 -50
      vertex 25.9217 27.9351 -50
      vertex -9.78148 -2.07912 -50
    endloop
  endfacet
  facet normal 0 0 -1
    outer loop
      vertex -9.78148 -2.07912 -50
      vertex 25.9217 27.9351 -50
      vertex 27.3329 25.4909 -50
    endloop
  endfacet
  facet normal 0 0 -1
    outer loop
      vertex -9.78148 -2.07912 -50
      vertex 27.3329 25.4909 -50
      vertex 28.205 22.8068 -50
    endloop
  endfacet
  facet normal 0 0 -1
    outer loop
      vertex -9.78148 -2.07912 -50
      vertex 28.205 22.8068 -50
      vertex 28.5 20 -50
    endloop
  endfacet
  facet normal 0 0 -1
    outer loop
      vertex -9.78148 -2.07912 -50
      vertex 28.5 20 -50
      vertex 28.205 17.1932 -50
    endloop
  endfacet
  facet normal 0 0 -1
    outer loop
      vertex -9.78148 -2.07912 -50
      vertex 28.205 17.1932 -50
      vertex 27.4657 14.9178 -50
    endloop
  endfacet
  facet normal 0 0 -1
    outer loop
      vertex -9.78148 -2.07912 -50
      vertex 27.4657 14.9178 -50
      vertex 29.5679 14.9178 -50
    endloop
  endfacet
  facet normal 0 0 -1
    outer loop
      vertex 29.5679 14.9178 -50
      vertex 32.6353 14.2658 -50
      vertex -9.78148 -2.07912 -50
    endloop
  endfacet
  facet normal 0 0 -1
    outer loop
      vertex 32.6353 14.2658 -50
      vertex 35.5 12.9904 -50
      vertex -9.78148 -2.07912 -50
    endloop
  endfacet
  facet normal 0 0 -1
    outer loop
      vertex -9.78148 -2.07912 -50
      vertex 35.5 12.9904 -50
      vertex 38.037 11.1472 -50
    endloop
  endfacet
  facet normal 0 0 -1
    outer loop
      vertex -9.78148 -2.07912 -50
      vertex 38.037 11.1472 -50
      vertex 40.1353 8.81678 -50
    endloop
  endfacet
  facet normal 0 0 -1
    outer loop
      vertex -9.78148 -2.07912 -50
      vertex 40.1353 8.81678 -50
      vertex 41.7032 6.10105 -50
    endloop
  endfacet
  facet normal 0 0 -1
    outer loop
      vertex -9.78148 -2.07912 -50
      vertex 41.7032 6.10105 -50
      vertex 42.6722 3.11867 -50
    endloop
  endfacet
  facet normal 0 0 -1
    outer loop
      vertex -9.78148 -2.07912 -50
      vertex 42.6722 3.11867 -50
      vertex 43 0 -50
    endloop
  endfacet
  facet normal 0 0 -1
    outer loop
      vertex -9.78148 -2.07912 -50
      vertex 43 0 -50
      vertex 42.6722 -3.11867 -50
    endloop
  endfacet
  facet normal 0 0 -1
    outer loop
      vertex -9.78148 -2.07912 -50
      vertex 42.6722 -3.11867 -50
      vertex 41.7032 -6.10105 -50
    endloop
  endfacet
  facet normal 0 0 -1
    outer loop
      vertex 13.8159 -4.62088 -50
      vertex 41.7032 -6.10105 -50
      vertex 40.1353 -8.81678 -50
    endloop
  endfacet
  facet normal 0 0 -1
    outer loop
      vertex 14.2968 -6.10105 -50
      vertex 40.1353 -8.81678 -50
      vertex 38.037 -11.1472 -50
    endloop
  endfacet
  facet normal 0 0 -1
    outer loop
      vertex 13.0902 -5.87785 -50
      vertex -9.78148 -2.07912 -50
      vertex 13.8159 -4.62088 -50
    endloop
  endfacet
  facet normal 0 0 -1
    outer loop
      vertex 15.8647 -8.81678 -50
      vertex 35.5 -12.9904 -50
      vertex 32.6353 -14.2658 -50
    endloop
  endfacet
  facet normal 0 0 -1
    outer loop
      vertex 14.2968 -6.10105 -50
      vertex 35.5 -12.9904 -50
      vertex 15.8647 -8.81678 -50
    endloop
  endfacet
  facet normal 0 0 -1
    outer loop
      vertex 17.963 -11.1472 -50
      vertex 29.5679 -14.9178 -50
      vertex 26.4321 -14.9178 -50
    endloop
  endfacet
  facet normal 0 0 -1
    outer loop
      vertex 20.5 -12.9904 -50
      vertex 26.4321 -14.9178 -50
      vertex 23.3647 -14.2658 -50
    endloop
  endfacet
  facet normal 0 0 -1
    outer loop
      vertex 10 -8.66025 -50
      vertex -9.78148 -2.07912 -50
      vertex 11.6913 -7.43145 -50
    endloop
  endfacet
  facet normal 0 0 -1
    outer loop
      vertex 15.8647 -8.81678 -50
      vertex 32.6353 -14.2658 -50
      vertex 29.5679 -14.9178 -50
    endloop
  endfacet
  facet normal 0 0 -1
    outer loop
      vertex 14.2968 -6.10105 -50
      vertex 38.037 -11.1472 -50
      vertex 35.5 -12.9904 -50
    endloop
  endfacet
  facet normal 0 0 -1
    outer loop
      vertex 13.8159 -4.62088 -50
      vertex 40.1353 -8.81678 -50
      vertex 14.2968 -6.10105 -50
    endloop
  endfacet
  facet normal 0 0 -1
    outer loop
      vertex -9.78148 -2.07912 -50
      vertex 41.7032 -6.10105 -50
      vertex 13.8159 -4.62088 -50
    endloop
  endfacet
  facet normal 0 0 -1
    outer loop
      vertex 11.6913 -7.43145 -50
      vertex -9.78148 -2.07912 -50
      vertex 13.0902 -5.87785 -50
    endloop
  endfacet
  facet normal 0 0 -1
    outer loop
      vertex 8.09017 -9.51056 -50
      vertex -9.78148 -2.07912 -50
      vertex 10 -8.66025 -50
    endloop
  endfacet
  facet normal 0 0 -1
    outer loop
      vertex 15.8647 -8.81678 -50
      vertex 29.5679 -14.9178 -50
      vertex 17.963 -11.1472 -50
    endloop
  endfacet
  facet normal 0 0 -1
    outer loop
      vertex -9.78148 -2.07912 -50
      vertex 8.09017 -9.51056 -50
      vertex 6.04528 -9.94522 -50
    endloop
  endfacet
  facet normal 0 0 -1
    outer loop
      vertex -9.78148 -2.07912 -50
      vertex 6.04528 -9.94522 -50
      vertex 3.95471 -9.94522 -50
    endloop
  endfacet
  facet normal 0 0 -1
    outer loop
      vertex -9.78148 -2.07912 -50
      vertex 3.95471 -9.94522 -50
      vertex 2.5 -9.63601 -50
    endloop
  endfacet
  facet normal 0 0 -1
    outer loop
      vertex 2.5 -9.63601 -50
      vertex 1.04529 -9.94522 -50
      vertex -9.78148 -2.07912 -50
    endloop
  endfacet
  facet normal 0 0 -1
    outer loop
      vertex 1.04529 -9.94522 -50
      vertex -1.04529 -9.94522 -50
      vertex -9.78148 -2.07912 -50
    endloop
  endfacet
  facet normal 0 0 -1
    outer loop
      vertex -9.78148 -2.07912 -50
      vertex -1.04529 -9.94522 -50
      vertex -3.09017 -9.51056 -50
    endloop
  endfacet
  facet normal 0 0 -1
    outer loop
      vertex -9.78148 -2.07912 -50
      vertex -3.09017 -9.51056 -50
      vertex -5 -8.66025 -50
    endloop
  endfacet
  facet normal 0 0 -1
    outer loop
      vertex -9.78148 -2.07912 -50
      vertex -5 -8.66025 -50
      vertex -6.69131 -7.43145 -50
    endloop
  endfacet
  facet normal 0 0 -1
    outer loop
      vertex -9.78148 -2.07912 -50
      vertex -6.69131 -7.43145 -50
      vertex -8.09017 -5.87785 -50
    endloop
  endfacet
  facet normal 0 0 -1
    outer loop
      vertex -9.78148 -2.07912 -50
      vertex -8.09017 -5.87785 -50
      vertex -9.13546 -4.06737 -50
    endloop
  endfacet
  facet normal 0 0 -1
    outer loop
      vertex 19.1717 32.8393 -50
      vertex 0.00575772 9.94522 -50
      vertex 17.2944 33.2383 -50
    endloop
  endfacet
  facet normal -0.994522 0.104528 0
    outer loop
      vertex -10 0 -50
      vertex -10 0 50
      vertex -9.78148 2.07912 -50
    endloop
  endfacet
  facet normal -0.994522 0.104528 0
    outer loop
      vertex -9.78148 2.07912 -50
      vertex -10 0 50
      vertex -9.78148 2.07912 50
    endloop
  endfacet
  facet normal -0.994522 -0.104528 0
    outer loop
      vertex -10 0 -50
      vertex -9.78148 -2.07912 -50
      vertex -10 0 50
    endloop
  endfacet
  facet normal -0.994522 -0.104528 0
    outer loop
      vertex -10 0 50
      vertex -9.78148 -2.07912 -50
      vertex -9.78148 -2.07912 50
    endloop
  endfacet
  facet normal -0.951057 -0.309017 0
    outer loop
      vertex -9.78148 -2.07912 -50
      vertex -9.13546 -4.06737 -50
      vertex -9.78148 -2.07912 50
    endloop
  endfacet
  facet normal -0.951057 -0.309017 0
    outer loop
      vertex -9.78148 -2.07912 50
      vertex -9.13546 -4.06737 -50
      vertex -9.13546 -4.06737 50
    endloop
  endfacet
  facet normal -0.866025 -0.5 0
    outer loop
      vertex -9.13546 -4.06737 -50
      vertex -8.09017 -5.87785 -50
      vertex -9.13546 -4.06737 50
    endloop
  endfacet
  facet normal -0.866025 -0.5 0
    outer loop
      vertex -9.13546 -4.06737 50
      vertex -8.09017 -5.87785 -50
      vertex -8.09017 -5.87785 50
    endloop
  endfacet
  facet normal -0.743145 -0.669131 0
    outer loop
      vertex -8.09017 -5.87785 -50
      vertex -6.69131 -7.43145 -50
      vertex -8.09017 -5.87785 50
    endloop
  endfacet
  facet normal -0.743145 -0.669131 0
    outer loop
      vertex -8.09017 -5.87785 50
      vertex -6.69131 -7.43145 -50
      vertex -6.69131 -7.43145 50
    endloop
  endfacet
  facet normal -0.587785 -0.809017 0
    outer loop
      vertex -6.69131 -7.43145 50
      vertex -6.69131 -7.43145 -50
      vertex -5 -8.66025 -50
    endloop
  endfacet
  facet normal -0.587785 -0.809017 0
    outer loop
      vertex -5 -8.66025 50
      vertex -6.69131 -7.43145 50
      vertex -5 -8.66025 -50
    endloop
  endfacet
  facet normal -0.406737 -0.913545 0
    outer loop
      vertex -5 -8.66025 50
      vertex -5 -8.66025 -50
      vertex -3.09017 -9.51056 -50
    endloop
  endfacet
  facet normal -0.406737 -0.913545 0
    outer loop
      vertex -3.09017 -9.51056 50
      vertex -5 -8.66025 50
      vertex -3.09017 -9.51056 -50
    endloop
  endfacet
  facet normal -0.207912 -0.978148 0
    outer loop
      vertex -3.09017 -9.51056 50
      vertex -3.09017 -9.51056 -50
      vertex -1.04529 -9.94522 -50
    endloop
  endfacet
  facet normal -0.207912 -0.978148 0
    outer loop
      vertex -1.04529 -9.94522 50
      vertex -3.09017 -9.51056 50
      vertex -1.04529 -9.94522 -50
    endloop
  endfacet
  facet normal 0 -1 0
    outer loop
      vertex -1.04529 -9.94522 50
      vertex -1.04529 -9.94522 -50
      vertex 1.04529 -9.94522 -50
    endloop
  endfacet
  facet normal 0 -1 0
    outer loop
      vertex 1.04529 -9.94522 50
      vertex -1.04529 -9.94522 50
      vertex 1.04529 -9.94522 -50
    endloop
  endfacet
  facet normal 0.207912 -0.978148 0
    outer loop
      vertex 1.04529 -9.94522 50
      vertex 1.04529 -9.94522 -50
      vertex 2.5 -9.63601 -50
    endloop
  endfacet
  facet normal 0.207912 -0.978148 0
    outer loop
      vertex 2.5 -9.63601 50
      vertex 1.04529 -9.94522 50
      vertex 2.5 -9.63601 -50
    endloop
  endfacet
  facet normal -0.207912 -0.978148 0
    outer loop
      vertex 2.5 -9.63601 50
      vertex 2.5 -9.63601 -50
      vertex 3.95471 -9.94522 -50
    endloop
  endfacet
  facet normal -0.207912 -0.978148 0
    outer loop
      vertex 3.95471 -9.94522 50
      vertex 2.5 -9.63601 50
      vertex 3.95471 -9.94522 -50
    endloop
  endfacet
  facet normal 0 -1 0
    outer loop
      vertex 3.95471 -9.94522 50
      vertex 3.95471 -9.94522 -50
      vertex 6.04528 -9.94522 -50
    endloop
  endfacet
  facet normal 0 -1 0
    outer loop
      vertex 6.04528 -9.94522 50
      vertex 3.95471 -9.94522 50
      vertex 6.04528 -9.94522 -50
    endloop
  endfacet
  facet normal 0.207912 -0.978148 0
    outer loop
      vertex 6.04528 -9.94522 50
      vertex 6.04528 -9.94522 -50
      vertex 8.09017 -9.51056 -50
    endloop
  endfacet
  facet normal 0.207912 -0.978148 0
    outer loop
      vertex 8.09017 -9.51056 50
      vertex 6.04528 -9.94522 50
      vertex 8.09017 -9.51056 -50
    endloop
  endfacet
  facet normal 0.406737 -0.913545 0
    outer loop
      vertex 8.09017 -9.51056 50
      vertex 8.09017 -9.51056 -50
      vertex 10 -8.66025 -50
    endloop
  endfacet
  facet normal 0.406737 -0.913545 0
    outer loop
      vertex 10 -8.66025 50
      vertex 8.09017 -9.51056 50
      vertex 10 -8.66025 -50
    endloop
  endfacet
  facet normal 0.587785 -0.809017 0
    outer loop
      vertex 10 -8.66025 50
      vertex 10 -8.66025 -50
      vertex 11.6913 -7.43145 -50
    endloop
  endfacet
  facet normal 0.587785 -0.809017 0
    outer loop
      vertex 11.6913 -7.43145 50
      vertex 10 -8.66025 50
      vertex 11.6913 -7.43145 -50
    endloop
  endfacet
  facet normal 0.743145 -0.669131 0
    outer loop
      vertex 11.6913 -7.43145 50
      vertex 11.6913 -7.43145 -50
      vertex 13.0902 -5.87785 -50
    endloop
  endfacet
  facet normal 0.743145 -0.669131 0
    outer loop
      vertex 13.0902 -5.87785 50
      vertex 11.6913 -7.43145 50
      vertex 13.0902 -5.87785 -50
    endloop
  endfacet
  facet normal 0.866025 -0.5 0
    outer loop
      vertex 13.0902 -5.87785 50
      vertex 13.0902 -5.87785 -50
      vertex 13.8159 -4.62088 -50
    endloop
  endfacet
  facet normal 0.866025 -0.5 0
    outer loop
      vertex 13.8159 -4.62088 50
      vertex 13.0902 -5.87785 50
      vertex 13.8159 -4.62088 -50
    endloop
  endfacet
  facet normal -0.951057 -0.309017 0
    outer loop
      vertex 13.8159 -4.62088 -50
      vertex 14.2968 -6.10105 -50
      vertex 13.8159 -4.62088 50
    endloop
  endfacet
  facet normal -0.951057 -0.309017 0
    outer loop
      vertex 13.8159 -4.62088 50
      vertex 14.2968 -6.10105 -50
      vertex 14.2968 -6.10105 50
    endloop
  endfacet
  facet normal -0.866025 -0.5 0
    outer loop
      vertex 14.2968 -6.10105 -50
      vertex 15.8647 -8.81678 -50
      vertex 14.2968 -6.10105 50
    endloop
  endfacet
  facet normal -0.866025 -0.5 0
    outer loop
      vertex 14.2968 -6.10105 50
      vertex 15.8647 -8.81678 -50
      vertex 15.8647 -8.81678 50
    endloop
  endfacet
  facet normal -0.743145 -0.669131 0
    outer loop
      vertex 15.8647 -8.81678 -50
      vertex 17.963 -11.1472 -50
      vertex 15.8647 -8.81678 50
    endloop
  endfacet
  facet normal -0.743145 -0.669131 0
    outer loop
      vertex 15.8647 -8.81678 50
      vertex 17.963 -11.1472 -50
      vertex 17.963 -11.1472 50
    endloop
  endfacet
  facet normal -0.587785 -0.809017 0
    outer loop
      vertex 17.963 -11.1472 50
      vertex 17.963 -11.1472 -50
      vertex 20.5 -12.9904 -50
    endloop
  endfacet
  facet normal -0.587785 -0.809017 0
    outer loop
      vertex 20.5 -12.9904 50
      vertex 17.963 -11.1472 50
      vertex 20.5 -12.9904 -50
    endloop
  endfacet
  facet normal -0.406737 -0.913545 0
    outer loop
      vertex 20.5 -12.9904 50
      vertex 20.5 -12.9904 -50
      vertex 23.3647 -14.2658 -50
    endloop
  endfacet
  facet normal -0.406737 -0.913545 0
    outer loop
      vertex 23.3647 -14.2658 50
      vertex 20.5 -12.9904 50
      vertex 23.3647 -14.2658 -50
    endloop
  endfacet
  facet normal -0.207911 -0.978148 0
    outer loop
      vertex 23.3647 -14.2658 50
      vertex 23.3647 -14.2658 -50
      vertex 26.4321 -14.9178 -50
    endloop
  endfacet
  facet normal -0.207911 -0.978148 0
    outer loop
      vertex 26.4321 -14.9178 50
      vertex 23.3647 -14.2658 50
      vertex 26.4321 -14.9178 -50
    endloop
  endfacet
  facet normal 0 -1 0
    outer loop
      vertex 26.4321 -14.9178 50
      vertex 26.4321 -14.9178 -50
      vertex 29.5679 -14.9178 -50
    endloop
  endfacet
  facet normal 0 -1 0
    outer loop
      vertex 29.5679 -14.9178 50
      vertex 26.4321 -14.9178 50
      vertex 29.5679 -14.9178 -50
    endloop
  endfacet
  facet normal 0.207911 -0.978148 0
    outer loop
      vertex 29.5679 -14.9178 50
      vertex 29.5679 -14.9178 -50
      vertex 32.6353 -14.2658 -50
    endloop
  endfacet
  facet normal 0.207911 -0.978148 0
    outer loop
      vertex 32.6353 -14.2658 50
      vertex 29.5679 -14.9178 50
      vertex 32.6353 -14.2658 -50
    endloop
  endfacet
  facet normal 0.406737 -0.913545 0
    outer loop
      vertex 32.6353 -14.2658 50
      vertex 32.6353 -14.2658 -50
      vertex 35.5 -12.9904 -50
    endloop
  endfacet
  facet normal 0.406737 -0.913545 0
    outer loop
      vertex 35.5 -12.9904 50
      vertex 32.6353 -14.2658 50
      vertex 35.5 -12.9904 -50
    endloop
  endfacet
  facet normal 0.587785 -0.809017 0
    outer loop
      vertex 35.5 -12.9904 50
      vertex 35.5 -12.9904 -50
      vertex 38.037 -11.1472 -50
    endloop
  endfacet
  facet normal 0.587785 -0.809017 0
    outer loop
      vertex 38.037 -11.1472 50
      vertex 35.5 -12.9904 50
      vertex 38.037 -11.1472 -50
    endloop
  endfacet
  facet normal 0.743145 -0.669131 0
    outer loop
      vertex 38.037 -11.1472 50
      vertex 38.037 -11.1472 -50
      vertex 40.1353 -8.81678 -50
    endloop
  endfacet
  facet normal 0.743145 -0.669131 0
    outer loop
      vertex 40.1353 -8.81678 50
      vertex 38.037 -11.1472 50
      vertex 40.1353 -8.81678 -50
    endloop
  endfacet
  facet normal 0.866025 -0.5 0
    outer loop
      vertex 40.1353 -8.81678 50
      vertex 40.1353 -8.81678 -50
      vertex 41.7032 -6.10105 -50
    endloop
  endfacet
  facet normal 0.866025 -0.5 0
    outer loop
      vertex 41.7032 -6.10105 50
      vertex 40.1353 -8.81678 50
      vertex 41.7032 -6.10105 -50
    endloop
  endfacet
  facet normal 0.951057 -0.309017 0
    outer loop
      vertex 41.7032 -6.10105 50
      vertex 41.7032 -6.10105 -50
      vertex 42.6722 -3.11867 -50
    endloop
  endfacet
  facet normal 0.951057 -0.309017 0
    outer loop
      vertex 42.6722 -3.11867 50
      vertex 41.7032 -6.10105 50
      vertex 42.6722 -3.11867 -50
    endloop
  endfacet
  facet normal 0.994522 -0.104528 0
    outer loop
      vertex 42.6722 -3.11867 50
      vertex 42.6722 -3.11867 -50
      vertex 43 0 -50
    endloop
  endfacet
  facet normal 0.994522 -0.104528 0
    outer loop
      vertex 43 0 50
      vertex 42.6722 -3.11867 50
      vertex 43 0 -50
    endloop
  endfacet
  facet normal 0.994522 0.104528 0
    outer loop
      vertex 43 0 -50
      vertex 42.6722 3.11867 -50
      vertex 42.6722 3.11867 50
    endloop
  endfacet
  facet normal 0.994522 0.104528 0
    outer loop
      vertex 43 0 50
      vertex 43 0 -50
      vertex 42.6722 3.11867 50
    endloop
  endfacet
  facet normal 0.951057 0.309017 0
    outer loop
      vertex 42.6722 3.11867 -50
      vertex 41.7032 6.10105 -50
      vertex 41.7032 6.10105 50
    endloop
  endfacet
  facet normal 0.951057 0.309017 0
    outer loop
      vertex 42.6722 3.11867 50
      vertex 42.6722 3.11867 -50
      vertex 41.7032 6.10105 50
    endloop
  endfacet
  facet normal 0.866025 0.5 0
    outer loop
      vertex 41.7032 6.10105 -50
      vertex 40.1353 8.81678 -50
      vertex 40.1353 8.81678 50
    endloop
  endfacet
  facet normal 0.866025 0.5 0
    outer loop
      vertex 41.7032 6.10105 50
      vertex 41.7032 6.10105 -50
      vertex 40.1353 8.81678 50
    endloop
  endfacet
  facet normal 0.743145 0.669131 0
    outer loop
      vertex 40.1353 8.81678 -50
      vertex 38.037 11.1472 -50
      vertex 38.037 11.1472 50
    endloop
  endfacet
  facet normal 0.743145 0.669131 0
    outer loop
      vertex 40.1353 8.81678 50
      vertex 40.1353 8.81678 -50
      vertex 38.037 11.1472 50
    endloop
  endfacet
  facet normal 0.587785 0.809017 0
    outer loop
      vertex 35.5 12.9904 -50
      vertex 35.5 12.9904 50
      vertex 38.037 11.1472 -50
    endloop
  endfacet
  facet normal 0.587785 0.809017 0
    outer loop
      vertex 38.037 11.1472 -50
      vertex 35.5 12.9904 50
      vertex 38.037 11.1472 50
    endloop
  endfacet
  facet normal 0.406737 0.913545 0
    outer loop
      vertex 32.6353 14.2658 -50
      vertex 32.6353 14.2658 50
      vertex 35.5 12.9904 -50
    endloop
  endfacet
  facet normal 0.406737 0.913545 0
    outer loop
      vertex 35.5 12.9904 -50
      vertex 32.6353 14.2658 50
      vertex 35.5 12.9904 50
    endloop
  endfacet
  facet normal 0.207911 0.978148 0
    outer loop
      vertex 29.5679 14.9178 -50
      vertex 29.5679 14.9178 50
      vertex 32.6353 14.2658 -50
    endloop
  endfacet
  facet normal 0.207911 0.978148 0
    outer loop
      vertex 32.6353 14.2658 -50
      vertex 29.5679 14.9178 50
      vertex 32.6353 14.2658 50
    endloop
  endfacet
  facet normal 0 1 0
    outer loop
      vertex 27.4657 14.9178 -50
      vertex 27.4657 14.9178 50
      vertex 29.5679 14.9178 -50
    endloop
  endfacet
  facet normal 0 1 0
    outer loop
      vertex 29.5679 14.9178 -50
      vertex 27.4657 14.9178 50
      vertex 29.5679 14.9178 50
    endloop
  endfacet
  facet normal 0.951057 -0.309017 0
    outer loop
      vertex 27.4657 14.9178 50
      vertex 27.4657 14.9178 -50
      vertex 28.205 17.1932 -50
    endloop
  endfacet
  facet normal 0.951057 -0.309017 0
    outer loop
      vertex 28.205 17.1932 50
      vertex 27.4657 14.9178 50
      vertex 28.205 17.1932 -50
    endloop
  endfacet
  facet normal 0.994522 -0.104528 0
    outer loop
      vertex 28.205 17.1932 50
      vertex 28.205 17.1932 -50
      vertex 28.5 20 -50
    endloop
  endfacet
  facet normal 0.994522 -0.104528 0
    outer loop
      vertex 28.5 20 50
      vertex 28.205 17.1932 50
      vertex 28.5 20 -50
    endloop
  endfacet
  facet normal 0.994522 0.104528 0
    outer loop
      vertex 28.5 20 -50
      vertex 28.205 22.8068 -50
      vertex 28.205 22.8068 50
    endloop
  endfacet
  facet normal 0.994522 0.104528 0
    outer loop
      vertex 28.5 20 50
      vertex 28.5 20 -50
      vertex 28.205 22.8068 50
    endloop
  endfacet
  facet normal 0.951057 0.309017 0
    outer loop
      vertex 28.205 22.8068 -50
      vertex 27.3329 25.4909 -50
      vertex 27.3329 25.4909 50
    endloop
  endfacet
  facet normal 0.951057 0.309017 0
    outer loop
      vertex 28.205 22.8068 50
      vertex 28.205 22.8068 -50
      vertex 27.3329 25.4909 50
    endloop
  endfacet
  facet normal 0.866025 0.5 0
    outer loop
      vertex 27.3329 25.4909 -50
      vertex 25.9217 27.9351 -50
      vertex 25.9217 27.9351 50
    endloop
  endfacet
  facet normal 0.866025 0.5 0
    outer loop
      vertex 27.3329 25.4909 50
      vertex 27.3329 25.4909 -50
      vertex 25.9217 27.9351 50
    endloop
  endfacet
  facet normal 0.743145 0.669131 0
    outer loop
      vertex 25.9217 27.9351 -50
      vertex 24.0333 30.0325 -50
      vertex 24.0333 30.0325 50
    endloop
  endfacet
  facet normal 0.743145 0.669131 0
    outer loop
      vertex 25.9217 27.9351 50
      vertex 25.9217 27.9351 -50
      vertex 24.0333 30.0325 50
    endloop
  endfacet
  facet normal 0.587785 0.809017 0
    outer loop
      vertex 21.75 31.6913 -50
      vertex 21.75 31.6913 50
      vertex 24.0333 30.0325 -50
    endloop
  endfacet
  facet normal 0.587785 0.809017 0
    outer loop
      vertex 24.0333 30.0325 -50
      vertex 21.75 31.6913 50
      vertex 24.0333 30.0325 50
    endloop
  endfacet
  facet normal 0.406737 0.913545 0
    outer loop
      vertex 19.1717 32.8393 -50
      vertex 19.1717 32.8393 50
      vertex 21.75 31.6913 -50
    endloop
  endfacet
  facet normal 0.406737 0.913545 0
    outer loop
      vertex 21.75 31.6913 -50
      vertex 19.1717 32.8393 50
      vertex 21.75 31.6913 50
    endloop
  endfacet
  facet normal 0.207912 0.978148 0
    outer loop
      vertex 17.2944 33.2383 -50
      vertex 17.2944 33.2383 50
      vertex 19.1717 32.8393 -50
    endloop
  endfacet
  facet normal 0.207912 0.978148 0
    outer loop
      vertex 19.1717 32.8393 -50
      vertex 17.2944 33.2383 50
      vertex 19.1717 32.8393 50
    endloop
  endfacet
  facet normal 0.743145 -0.669131 0
    outer loop
      vertex 17.2944 33.2383 50
      vertex 17.2944 33.2383 -50
      vertex 18.0902 34.1221 -50
    endloop
  endfacet
  facet normal 0.743145 -0.669131 0
    outer loop
      vertex 18.0902 34.1221 50
      vertex 17.2944 33.2383 50
      vertex 18.0902 34.1221 -50
    endloop
  endfacet
  facet normal 0.866025 -0.5 0
    outer loop
      vertex 18.0902 34.1221 50
      vertex 18.0902 34.1221 -50
      vertex 19.1355 35.9326 -50
    endloop
  endfacet
  facet normal 0.866025 -0.5 0
    outer loop
      vertex 19.1355 35.9326 50
      vertex 18.0902 34.1221 50
      vertex 19.1355 35.9326 -50
    endloop
  endfacet
  facet normal 0.951057 -0.309017 0
    outer loop
      vertex 19.1355 35.9326 50
      vertex 19.1355 35.9326 -50
      vertex 19.7815 37.9209 -50
    endloop
  endfacet
  facet normal 0.951057 -0.309017 0
    outer loop
      vertex 19.7815 37.9209 50
      vertex 19.1355 35.9326 50
      vertex 19.7815 37.9209 -50
    endloop
  endfacet
  facet normal 0.994522 -0.104528 0
    outer loop
      vertex 19.7815 37.9209 50
      vertex 19.7815 37.9209 -50
      vertex 20 40 -50
    endloop
  endfacet
  facet normal 0.994522 -0.104528 0
    outer loop
      vertex 20 40 50
      vertex 19.7815 37.9209 50
      vertex 20 40 -50
    endloop
  endfacet
  facet normal 0.994522 0.104528 0
    outer loop
      vertex 20 40 -50
      vertex 19.7815 42.0791 -50
      vertex 19.7815 42.0791 50
    endloop
  endfacet
  facet normal 0.994522 0.104528 0
    outer loop
      vertex 20 40 50
      vertex 20 40 -50
      vertex 19.7815 42.0791 50
    endloop
  endfacet
  facet normal 0.951057 0.309017 0
    outer loop
      vertex 19.7815 42.0791 -50
      vertex 19.1355 44.0674 -50
      vertex 19.1355 44.0674 50
    endloop
  endfacet
  facet normal 0.951057 0.309017 0
    outer loop
      vertex 19.7815 42.0791 50
      vertex 19.7815 42.0791 -50
      vertex 19.1355 44.0674 50
    endloop
  endfacet
  facet normal 0.866025 0.5 0
    outer loop
      vertex 19.1355 44.0674 -50
      vertex 18.0902 45.8779 -50
      vertex 18.0902 45.8779 50
    endloop
  endfacet
  facet normal 0.866025 0.5 0
    outer loop
      vertex 19.1355 44.0674 50
      vertex 19.1355 44.0674 -50
      vertex 18.0902 45.8779 50
    endloop
  endfacet
  facet normal 0.743145 0.669131 0
    outer loop
      vertex 18.0902 45.8779 -50
      vertex 16.6913 47.4314 -50
      vertex 16.6913 47.4314 50
    endloop
  endfacet
  facet normal 0.743145 0.669131 0
    outer loop
      vertex 18.0902 45.8779 50
      vertex 18.0902 45.8779 -50
      vertex 16.6913 47.4314 50
    endloop
  endfacet
  facet normal 0.587785 0.809017 0
    outer loop
      vertex 15 48.6603 -50
      vertex 15 48.6603 50
      vertex 16.6913 47.4314 -50
    endloop
  endfacet
  facet normal 0.587785 0.809017 0
    outer loop
      vertex 16.6913 47.4314 -50
      vertex 15 48.6603 50
      vertex 16.6913 47.4314 50
    endloop
  endfacet
  facet normal 0.406737 0.913545 0
    outer loop
      vertex 13.0902 49.5106 -50
      vertex 13.0902 49.5106 50
      vertex 15 48.6603 -50
    endloop
  endfacet
  facet normal 0.406737 0.913545 0
    outer loop
      vertex 15 48.6603 -50
      vertex 13.0902 49.5106 50
      vertex 15 48.6603 50
    endloop
  endfacet
  facet normal 0.207912 0.978148 0
    outer loop
      vertex 11.0453 49.9452 -50
      vertex 11.0453 49.9452 50
      vertex 13.0902 49.5106 -50
    endloop
  endfacet
  facet normal 0.207912 0.978148 0
    outer loop
      vertex 13.0902 49.5106 -50
      vertex 11.0453 49.9452 50
      vertex 13.0902 49.5106 50
    endloop
  endfacet
  facet normal 0 1 0
    outer loop
      vertex 8.95471 49.9452 -50
      vertex 8.95471 49.9452 50
      vertex 11.0453 49.9452 -50
    endloop
  endfacet
  facet normal 0 1 0
    outer loop
      vertex 11.0453 49.9452 -50
      vertex 8.95471 49.9452 50
      vertex 11.0453 49.9452 50
    endloop
  endfacet
  facet normal -0.207912 0.978148 0
    outer loop
      vertex 6.90983 49.5106 -50
      vertex 6.90983 49.5106 50
      vertex 8.95471 49.9452 -50
    endloop
  endfacet
  facet normal -0.207912 0.978148 0
    outer loop
      vertex 8.95471 49.9452 -50
      vertex 6.90983 49.5106 50
      vertex 8.95471 49.9452 50
    endloop
  endfacet
  facet normal -0.406737 0.913545 0
    outer loop
      vertex 5 48.6603 -50
      vertex 5 48.6603 50
      vertex 6.90983 49.5106 -50
    endloop
  endfacet
  facet normal -0.406737 0.913545 0
    outer loop
      vertex 6.90983 49.5106 -50
      vertex 5 48.6603 50
      vertex 6.90983 49.5106 50
    endloop
  endfacet
  facet normal -0.587785 0.809017 0
    outer loop
      vertex 3.30869 47.4314 -50
      vertex 3.30869 47.4314 50
      vertex 5 48.6603 -50
    endloop
  endfacet
  facet normal -0.587785 0.809017 0
    outer loop
      vertex 5 48.6603 -50
      vertex 3.30869 47.4314 50
      vertex 5 48.6603 50
    endloop
  endfacet
  facet normal -0.743145 0.669131 0
    outer loop
      vertex 1.90983 45.8779 -50
      vertex 1.90983 45.8779 50
      vertex 3.30869 47.4314 -50
    endloop
  endfacet
  facet normal -0.743145 0.669131 0
    outer loop
      vertex 3.30869 47.4314 -50
      vertex 1.90983 45.8779 50
      vertex 3.30869 47.4314 50
    endloop
  endfacet
  facet normal -0.866025 0.5 0
    outer loop
      vertex 0.864545 44.0674 -50
      vertex 0.864545 44.0674 50
      vertex 1.90983 45.8779 -50
    endloop
  endfacet
  facet normal -0.866025 0.5 0
    outer loop
      vertex 1.90983 45.8779 -50
      vertex 0.864545 44.0674 50
      vertex 1.90983 45.8779 50
    endloop
  endfacet
  facet normal -0.951057 0.309017 0
    outer loop
      vertex 0.218524 42.0791 -50
      vertex 0.218524 42.0791 50
      vertex 0.864545 44.0674 -50
    endloop
  endfacet
  facet normal -0.951057 0.309017 0
    outer loop
      vertex 0.864545 44.0674 -50
      vertex 0.218524 42.0791 50
      vertex 0.864545 44.0674 50
    endloop
  endfacet
  facet normal -0.994522 0.104528 0
    outer loop
      vertex 0 40 -50
      vertex 0 40 50
      vertex 0.218524 42.0791 -50
    endloop
  endfacet
  facet normal -0.994522 0.104528 0
    outer loop
      vertex 0.218524 42.0791 -50
      vertex 0 40 50
      vertex 0.218524 42.0791 50
    endloop
  endfacet
  facet normal -0.994522 -0.104528 0
    outer loop
      vertex 0 40 -50
      vertex 0.218524 37.9209 -50
      vertex 0 40 50
    endloop
  endfacet
  facet normal -0.994522 -0.104528 0
    outer loop
      vertex 0 40 50
      vertex 0.218524 37.9209 -50
      vertex 0.218524 37.9209 50
    endloop
  endfacet
  facet normal -0.951057 -0.309017 0
    outer loop
      vertex 0.218524 37.9209 -50
      vertex 0.864545 35.9326 -50
      vertex 0.218524 37.9209 50
    endloop
  endfacet
  facet normal -0.951057 -0.309017 0
    outer loop
      vertex 0.218524 37.9209 50
      vertex 0.864545 35.9326 -50
      vertex 0.864545 35.9326 50
    endloop
  endfacet
  facet normal -0.866025 -0.5 0
    outer loop
      vertex 0.864545 35.9326 -50
      vertex 1.90983 34.1221 -50
      vertex 0.864545 35.9326 50
    endloop
  endfacet
  facet normal -0.866025 -0.5 0
    outer loop
      vertex 0.864545 35.9326 50
      vertex 1.90983 34.1221 -50
      vertex 1.90983 34.1221 50
    endloop
  endfacet
  facet normal -0.743145 -0.669131 0
    outer loop
      vertex 1.90983 34.1221 -50
      vertex 3.30869 32.5686 -50
      vertex 1.90983 34.1221 50
    endloop
  endfacet
  facet normal -0.743145 -0.669131 0
    outer loop
      vertex 1.90983 34.1221 50
      vertex 3.30869 32.5686 -50
      vertex 3.30869 32.5686 50
    endloop
  endfacet
  facet normal -0.587785 -0.809017 0
    outer loop
      vertex 3.30869 32.5686 50
      vertex 3.30869 32.5686 -50
      vertex 5 31.3397 -50
    endloop
  endfacet
  facet normal -0.587785 -0.809017 0
    outer loop
      vertex 5 31.3397 50
      vertex 3.30869 32.5686 50
      vertex 5 31.3397 -50
    endloop
  endfacet
  facet normal -0.406737 -0.913545 0
    outer loop
      vertex 5 31.3397 50
      vertex 5 31.3397 -50
      vertex 6.71507 30.5761 -50
    endloop
  endfacet
  facet normal -0.406737 -0.913545 0
    outer loop
      vertex 6.71507 30.5761 50
      vertex 5 31.3397 50
      vertex 6.71507 30.5761 -50
    endloop
  endfacet
  facet normal -0.587785 0.809017 0
    outer loop
      vertex 5.96674 30.0325 -50
      vertex 5.96674 30.0325 50
      vertex 6.71507 30.5761 -50
    endloop
  endfacet
  facet normal -0.587785 0.809017 0
    outer loop
      vertex 6.71507 30.5761 -50
      vertex 5.96674 30.0325 50
      vertex 6.71507 30.5761 50
    endloop
  endfacet
  facet normal -0.743145 0.669131 0
    outer loop
      vertex 4.80812 28.7457 -50
      vertex 4.80812 28.7457 50
      vertex 5.96674 30.0325 -50
    endloop
  endfacet
  facet normal -0.743145 0.669131 0
    outer loop
      vertex 5.96674 30.0325 -50
      vertex 4.80812 28.7457 50
      vertex 5.96674 30.0325 50
    endloop
  endfacet
  facet normal 0.406737 0.913545 0
    outer loop
      vertex 3.09017 29.5106 -50
      vertex 3.09017 29.5106 50
      vertex 4.80812 28.7457 -50
    endloop
  endfacet
  facet normal 0.406737 0.913545 0
    outer loop
      vertex 4.80812 28.7457 -50
      vertex 3.09017 29.5106 50
      vertex 4.80812 28.7457 50
    endloop
  endfacet
  facet normal 0.207912 0.978148 0
    outer loop
      vertex 1.04529 29.9452 -50
      vertex 1.04529 29.9452 50
      vertex 3.09017 29.5106 -50
    endloop
  endfacet
  facet normal 0.207912 0.978148 0
    outer loop
      vertex 3.09017 29.5106 -50
      vertex 1.04529 29.9452 50
      vertex 3.09017 29.5106 50
    endloop
  endfacet
  facet normal 0 1 0
    outer loop
      vertex -1.04529 29.9452 -50
      vertex -1.04529 29.9452 50
      vertex 1.04529 29.9452 -50
    endloop
  endfacet
  facet normal 0 1 0
    outer loop
      vertex 1.04529 29.9452 -50
      vertex -1.04529 29.9452 50
      vertex 1.04529 29.9452 50
    endloop
  endfacet
  facet normal -0.207912 0.978148 0
    outer loop
      vertex -3.09017 29.5106 -50
      vertex -3.09017 29.5106 50
      vertex -1.04529 29.9452 -50
    endloop
  endfacet
  facet normal -0.207912 0.978148 0
    outer loop
      vertex -1.04529 29.9452 -50
      vertex -3.09017 29.5106 50
      vertex -1.04529 29.9452 50
    endloop
  endfacet
  facet normal -0.406737 0.913545 0
    outer loop
      vertex -5 28.6603 -50
      vertex -5 28.6603 50
      vertex -3.09017 29.5106 -50
    endloop
  endfacet
  facet normal -0.406737 0.913545 0
    outer loop
      vertex -3.09017 29.5106 -50
      vertex -5 28.6603 50
      vertex -3.09017 29.5106 50
    endloop
  endfacet
  facet normal -0.587785 0.809017 0
    outer loop
      vertex -6.69131 27.4314 -50
      vertex -6.69131 27.4314 50
      vertex -5 28.6603 -50
    endloop
  endfacet
  facet normal -0.587785 0.809017 0
    outer loop
      vertex -5 28.6603 -50
      vertex -6.69131 27.4314 50
      vertex -5 28.6603 50
    endloop
  endfacet
  facet normal -0.743145 0.669131 0
    outer loop
      vertex -8.09017 25.8779 -50
      vertex -8.09017 25.8779 50
      vertex -6.69131 27.4314 -50
    endloop
  endfacet
  facet normal -0.743145 0.669131 0
    outer loop
      vertex -6.69131 27.4314 -50
      vertex -8.09017 25.8779 50
      vertex -6.69131 27.4314 50
    endloop
  endfacet
  facet normal -0.866025 0.5 0
    outer loop
      vertex -9.13546 24.0674 -50
      vertex -9.13546 24.0674 50
      vertex -8.09017 25.8779 -50
    endloop
  endfacet
  facet normal -0.866025 0.5 0
    outer loop
      vertex -8.09017 25.8779 -50
      vertex -9.13546 24.0674 50
      vertex -8.09017 25.8779 50
    endloop
  endfacet
  facet normal -0.951057 0.309017 0
    outer loop
      vertex -9.78148 22.0791 -50
      vertex -9.78148 22.0791 50
      vertex -9.13546 24.0674 -50
    endloop
  endfacet
  facet normal -0.951057 0.309017 0
    outer loop
      vertex -9.13546 24.0674 -50
      vertex -9.78148 22.0791 50
      vertex -9.13546 24.0674 50
    endloop
  endfacet
  facet normal -0.994522 0.104528 0
    outer loop
      vertex -10 20 -50
      vertex -10 20 50
      vertex -9.78148 22.0791 -50
    endloop
  endfacet
  facet normal -0.994522 0.104528 0
    outer loop
      vertex -9.78148 22.0791 -50
      vertex -10 20 50
      vertex -9.78148 22.0791 50
    endloop
  endfacet
  facet normal -0.994522 -0.104528 0
    outer loop
      vertex -10 20 -50
      vertex -9.78148 17.9209 -50
      vertex -10 20 50
    endloop
  endfacet
  facet normal -0.994522 -0.104528 0
    outer loop
      vertex -10 20 50
      vertex -9.78148 17.9209 -50
      vertex -9.78148 17.9209 50
    endloop
  endfacet
  facet normal -0.951057 -0.309017 0
    outer loop
      vertex -9.78148 17.9209 -50
      vertex -9.13546 15.9326 -50
      vertex -9.78148 17.9209 50
    endloop
  endfacet
  facet normal -0.951057 -0.309017 0
    outer loop
      vertex -9.78148 17.9209 50
      vertex -9.13546 15.9326 -50
      vertex -9.13546 15.9326 50
    endloop
  endfacet
  facet normal -0.866025 -0.5 0
    outer loop
      vertex -9.13546 15.9326 -50
      vertex -8.09017 14.1221 -50
      vertex -9.13546 15.9326 50
    endloop
  endfacet
  facet normal -0.866025 -0.5 0
    outer loop
      vertex -9.13546 15.9326 50
      vertex -8.09017 14.1221 -50
      vertex -8.09017 14.1221 50
    endloop
  endfacet
  facet normal -0.743145 -0.669131 0
    outer loop
      vertex -8.09017 14.1221 -50
      vertex -6.69131 12.5686 -50
      vertex -8.09017 14.1221 50
    endloop
  endfacet
  facet normal -0.743145 -0.669131 0
    outer loop
      vertex -8.09017 14.1221 50
      vertex -6.69131 12.5686 -50
      vertex -6.69131 12.5686 50
    endloop
  endfacet
  facet normal -0.587785 -0.809017 0
    outer loop
      vertex -6.69131 12.5686 50
      vertex -6.69131 12.5686 -50
      vertex -5 11.3397 -50
    endloop
  endfacet
  facet normal -0.587785 -0.809017 0
    outer loop
      vertex -5 11.3397 50
      vertex -6.69131 12.5686 50
      vertex -5 11.3397 -50
    endloop
  endfacet
  facet normal -0.406737 -0.913545 0
    outer loop
      vertex -5 11.3397 50
      vertex -5 11.3397 -50
      vertex -3.09017 10.4894 -50
    endloop
  endfacet
  facet normal -0.406737 -0.913545 0
    outer loop
      vertex -3.09017 10.4894 50
      vertex -5 11.3397 50
      vertex -3.09017 10.4894 -50
    endloop
  endfacet
  facet normal -0.207912 -0.978148 0
    outer loop
      vertex -3.09017 10.4894 50
      vertex -3.09017 10.4894 -50
      vertex -1.04529 10.0548 -50
    endloop
  endfacet
  facet normal -0.207912 -0.978148 0
    outer loop
      vertex -1.04529 10.0548 50
      vertex -3.09017 10.4894 50
      vertex -1.04529 10.0548 -50
    endloop
  endfacet
  facet normal 0 -1 0
    outer loop
      vertex -1.04529 10.0548 50
      vertex -1.04529 10.0548 -50
      vertex 0.00575772 10.0548 -50
    endloop
  endfacet
  facet normal 0 -1 0
    outer loop
      vertex 0.00575772 10.0548 50
      vertex -1.04529 10.0548 50
      vertex 0.00575772 10.0548 -50
    endloop
  endfacet
  facet normal -0.994522 0.104528 0
    outer loop
      vertex 0 10 -50
      vertex 0 10 50
      vertex 0.00575772 10.0548 -50
    endloop
  endfacet
  facet normal -0.994522 0.104528 0
    outer loop
      vertex 0.00575772 10.0548 -50
      vertex 0 10 50
      vertex 0.00575772 10.0548 50
    endloop
  endfacet
  facet normal -0.994522 -0.104528 0
    outer loop
      vertex 0 10 -50
      vertex 0.00575772 9.94522 -50
      vertex 0 10 50
    endloop
  endfacet
  facet normal -0.994522 -0.104528 0
    outer loop
      vertex 0 10 50
      vertex 0.00575772 9.94522 -50
      vertex 0.00575772 9.94522 50
    endloop
  endfacet
  facet normal 0 1 0
    outer loop
      vertex -1.04529 9.94522 -50
      vertex -1.04529 9.94522 50
      vertex 0.00575772 9.94522 -50
    endloop
  endfacet
  facet normal 0 1 0
    outer loop
      vertex 0.00575772 9.94522 -50
      vertex -1.04529 9.94522 50
      vertex 0.00575772 9.94522 50
    endloop
  endfacet
  facet normal -0.207912 0.978148 0
    outer loop
      vertex -3.09017 9.51056 -50
      vertex -3.09017 9.51056 50
      vertex -1.04529 9.94522 -50
    endloop
  endfacet
  facet normal -0.207912 0.978148 0
    outer loop
      vertex -1.04529 9.94522 -50
      vertex -3.09017 9.51056 50
      vertex -1.04529 9.94522 50
    endloop
  endfacet
  facet normal -0.406737 0.913545 0
    outer loop
      vertex -5 8.66025 -50
      vertex -5 8.66025 50
      vertex -3.09017 9.51056 -50
    endloop
  endfacet
  facet normal -0.406737 0.913545 0
    outer loop
      vertex -3.09017 9.51056 -50
      vertex -5 8.66025 50
      vertex -3.09017 9.51056 50
    endloop
  endfacet
  facet normal -0.587785 0.809017 0
    outer loop
      vertex -6.69131 7.43145 -50
      vertex -6.69131 7.43145 50
      vertex -5 8.66025 -50
    endloop
  endfacet
  facet normal -0.587785 0.809017 0
    outer loop
      vertex -5 8.66025 -50
      vertex -6.69131 7.43145 50
      vertex -5 8.66025 50
    endloop
  endfacet
  facet normal -0.743145 0.669131 0
    outer loop
      vertex -8.09017 5.87785 -50
      vertex -8.09017 5.87785 50
      vertex -6.69131 7.43145 -50
    endloop
  endfacet
  facet normal -0.743145 0.669131 0
    outer loop
      vertex -6.69131 7.43145 -50
      vertex -8.09017 5.87785 50
      vertex -6.69131 7.43145 50
    endloop
  endfacet
  facet normal -0.866025 0.5 0
    outer loop
      vertex -9.13546 4.06737 -50
      vertex -9.13546 4.06737 50
      vertex -8.09017 5.87785 -50
    endloop
  endfacet
  facet normal -0.866025 0.5 0
    outer loop
      vertex -8.09017 5.87785 -50
      vertex -9.13546 4.06737 50
      vertex -8.09017 5.87785 50
    endloop
  endfacet
  facet normal -0.951057 0.309017 0
    outer loop
      vertex -9.78148 2.07912 -50
      vertex -9.78148 2.07912 50
      vertex -9.13546 4.06737 -50
    endloop
  endfacet
  facet normal -0.951057 0.309017 0
    outer loop
      vertex -9.13546 4.06737 -50
      vertex -9.78148 2.07912 50
      vertex -9.13546 4.06737 50
    endloop
  endfacet
  facet normal 0 0 1
    outer loop
      vertex -9.78148 2.07912 50
      vertex -10 0 50
      vertex -9.78148 -2.07912 50
    endloop
  endfacet
  facet normal 0 0 1
    outer loop
      vertex -8.09017 -5.87785 50
      vertex -9.78148 2.07912 50
      vertex -9.13546 -4.06737 50
    endloop
  endfacet
  facet normal 0 0 1
    outer loop
      vertex -9.13546 -4.06737 50
      vertex -9.78148 2.07912 50
      vertex -9.78148 -2.07912 50
    endloop
  endfacet
  facet normal 0 0 1
    outer loop
      vertex -8.09017 14.1221 50
      vertex -6.69131 12.5686 50
      vertex -3.09017 29.5106 50
    endloop
  endfacet
  facet normal 0 0 1
    outer loop
      vertex -6.69131 -7.43145 50
      vertex -9.78148 2.07912 50
      vertex -8.09017 -5.87785 50
    endloop
  endfacet
  facet normal 0 0 1
    outer loop
      vertex -5 -8.66025 50
      vertex -9.78148 2.07912 50
      vertex -6.69131 -7.43145 50
    endloop
  endfacet
  facet normal 0 0 1
    outer loop
      vertex -3.09017 -9.51056 50
      vertex -9.78148 2.07912 50
      vertex -5 -8.66025 50
    endloop
  endfacet
  facet normal 0 0 1
    outer loop
      vertex -1.04529 -9.94522 50
      vertex -9.78148 2.07912 50
      vertex -3.09017 -9.51056 50
    endloop
  endfacet
  facet normal 0 0 1
    outer loop
      vertex 1.04529 -9.94522 50
      vertex -9.78148 2.07912 50
      vertex -1.04529 -9.94522 50
    endloop
  endfacet
  facet normal 0 0 1
    outer loop
      vertex 2.5 -9.63601 50
      vertex -9.78148 2.07912 50
      vertex 1.04529 -9.94522 50
    endloop
  endfacet
  facet normal 0 0 1
    outer loop
      vertex 3.95471 -9.94522 50
      vertex -9.78148 2.07912 50
      vertex 2.5 -9.63601 50
    endloop
  endfacet
  facet normal 0 0 1
    outer loop
      vertex 6.04528 -9.94522 50
      vertex -9.78148 2.07912 50
      vertex 3.95471 -9.94522 50
    endloop
  endfacet
  facet normal 0 0 1
    outer loop
      vertex 8.09017 -9.51056 50
      vertex -9.78148 2.07912 50
      vertex 6.04528 -9.94522 50
    endloop
  endfacet
  facet normal 0 0 1
    outer loop
      vertex 10 -8.66025 50
      vertex -9.78148 2.07912 50
      vertex 8.09017 -9.51056 50
    endloop
  endfacet
  facet normal 0 0 1
    outer loop
      vertex 11.6913 -7.43145 50
      vertex -9.78148 2.07912 50
      vertex 10 -8.66025 50
    endloop
  endfacet
  facet normal 0 0 1
    outer loop
      vertex 13.0902 -5.87785 50
      vertex -9.78148 2.07912 50
      vertex 11.6913 -7.43145 50
    endloop
  endfacet
  facet normal 0 0 1
    outer loop
      vertex 13.8159 -4.62088 50
      vertex -9.78148 2.07912 50
      vertex 13.0902 -5.87785 50
    endloop
  endfacet
  facet normal 0 0 1
    outer loop
      vertex 38.037 -11.1472 50
      vertex -9.78148 2.07912 50
      vertex 13.8159 -4.62088 50
    endloop
  endfacet
  facet normal 0 0 1
    outer loop
      vertex 15.8647 -8.81678 50
      vertex 13.8159 -4.62088 50
      vertex 14.2968 -6.10105 50
    endloop
  endfacet
  facet normal 0 0 1
    outer loop
      vertex 17.963 -11.1472 50
      vertex 13.8159 -4.62088 50
      vertex 15.8647 -8.81678 50
    endloop
  endfacet
  facet normal 0 0 1
    outer loop
      vertex 20.5 -12.9904 50
      vertex 13.8159 -4.62088 50
      vertex 17.963 -11.1472 50
    endloop
  endfacet
  facet normal 0 0 1
    outer loop
      vertex 23.3647 -14.2658 50
      vertex 13.8159 -4.62088 50
      vertex 20.5 -12.9904 50
    endloop
  endfacet
  facet normal 0 0 1
    outer loop
      vertex 26.4321 -14.9178 50
      vertex 13.8159 -4.62088 50
      vertex 23.3647 -14.2658 50
    endloop
  endfacet
  facet normal 0 0 1
    outer loop
      vertex 29.5679 -14.9178 50
      vertex 13.8159 -4.62088 50
      vertex 26.4321 -14.9178 50
    endloop
  endfacet
  facet normal 0 0 1
    outer loop
      vertex 32.6353 -14.2658 50
      vertex 13.8159 -4.62088 50
      vertex 29.5679 -14.9178 50
    endloop
  endfacet
  facet normal 0 0 1
    outer loop
      vertex 35.5 -12.9904 50
      vertex 13.8159 -4.62088 50
      vertex 32.6353 -14.2658 50
    endloop
  endfacet
  facet normal 0 0 1
    outer loop
      vertex 38.037 -11.1472 50
      vertex 13.8159 -4.62088 50
      vertex 35.5 -12.9904 50
    endloop
  endfacet
  facet normal 0 0 1
    outer loop
      vertex 40.1353 -8.81678 50
      vertex -9.78148 2.07912 50
      vertex 38.037 -11.1472 50
    endloop
  endfacet
  facet normal 0 0 1
    outer loop
      vertex 41.7032 -6.10105 50
      vertex -9.78148 2.07912 50
      vertex 40.1353 -8.81678 50
    endloop
  endfacet
  facet normal 0 0 1
    outer loop
      vertex 42.6722 -3.11867 50
      vertex -9.78148 2.07912 50
      vertex 41.7032 -6.10105 50
    endloop
  endfacet
  facet normal 0 0 1
    outer loop
      vertex 43 0 50
      vertex -9.78148 2.07912 50
      vertex 42.6722 -3.11867 50
    endloop
  endfacet
  facet normal 0 0 1
    outer loop
      vertex 42.6722 3.11867 50
      vertex -9.78148 2.07912 50
      vertex 43 0 50
    endloop
  endfacet
  facet normal 0 0 1
    outer loop
      vertex 41.7032 6.10105 50
      vertex -9.78148 2.07912 50
      vertex 42.6722 3.11867 50
    endloop
  endfacet
  facet normal 0 0 1
    outer loop
      vertex 40.1353 8.81678 50
      vertex -9.78148 2.07912 50
      vertex 41.7032 6.10105 50
    endloop
  endfacet
  facet normal 0 0 1
    outer loop
      vertex 38.037 11.1472 50
      vertex -9.78148 2.07912 50
      vertex 40.1353 8.81678 50
    endloop
  endfacet
  facet normal 0 0 1
    outer loop
      vertex 35.5 12.9904 50
      vertex -9.78148 2.07912 50
      vertex 38.037 11.1472 50
    endloop
  endfacet
  facet normal 0 0 1
    outer loop
      vertex 32.6353 14.2658 50
      vertex -9.78148 2.07912 50
      vertex 35.5 12.9904 50
    endloop
  endfacet
  facet normal 0 0 1
    outer loop
      vertex 29.5679 14.9178 50
      vertex -9.78148 2.07912 50
      vertex 32.6353 14.2658 50
    endloop
  endfacet
  facet normal 0 0 1
    outer loop
      vertex 27.4657 14.9178 50
      vertex -9.78148 2.07912 50
      vertex 29.5679 14.9178 50
    endloop
  endfacet
  facet normal 0 0 1
    outer loop
      vertex 28.205 17.1932 50
      vertex -9.78148 2.07912 50
      vertex 27.4657 14.9178 50
    endloop
  endfacet
  facet normal 0 0 1
    outer loop
      vertex 28.5 20 50
      vertex -9.78148 2.07912 50
      vertex 28.205 17.1932 50
    endloop
  endfacet
  facet normal 0 0 1
    outer loop
      vertex 28.205 22.8068 50
      vertex -9.78148 2.07912 50
      vertex 28.5 20 50
    endloop
  endfacet
  facet normal 0 0 1
    outer loop
      vertex 27.3329 25.4909 50
      vertex -9.78148 2.07912 50
      vertex 28.205 22.8068 50
    endloop
  endfacet
  facet normal 0 0 1
    outer loop
      vertex 25.9217 27.9351 50
      vertex -9.78148 2.07912 50
      vertex 27.3329 25.4909 50
    endloop
  endfacet
  facet normal 0 0 1
    outer loop
      vertex 0.00575772 9.94522 50
      vertex -9.78148 2.07912 50
      vertex 25.9217 27.9351 50
    endloop
  endfacet
  facet normal 0 0 1
    outer loop
      vertex -1.04529 10.0548 50
      vertex 0.00575772 10.0548 50
      vertex 24.0333 30.0325 50
    endloop
  endfacet
  facet normal 0 0 1
    outer loop
      vertex 19.1355 35.9326 50
      vertex 17.2944 33.2383 50
      vertex 18.0902 34.1221 50
    endloop
  endfacet
  facet normal 0 0 1
    outer loop
      vertex -6.69131 7.43145 50
      vertex -8.09017 5.87785 50
      vertex -9.78148 2.07912 50
    endloop
  endfacet
  facet normal 0 0 1
    outer loop
      vertex -3.09017 10.4894 50
      vertex 19.1717 32.8393 50
      vertex 17.2944 33.2383 50
    endloop
  endfacet
  facet normal 0 0 1
    outer loop
      vertex -3.09017 10.4894 50
      vertex 21.75 31.6913 50
      vertex 19.1717 32.8393 50
    endloop
  endfacet
  facet normal 0 0 1
    outer loop
      vertex -3.09017 10.4894 50
      vertex -1.04529 10.0548 50
      vertex 21.75 31.6913 50
    endloop
  endfacet
  facet normal 0 0 1
    outer loop
      vertex -5 11.3397 50
      vertex 6.71507 30.5761 50
      vertex 5.96674 30.0325 50
    endloop
  endfacet
  facet normal 0 0 1
    outer loop
      vertex -1.04529 29.9452 50
      vertex -3.09017 29.5106 50
      vertex -6.69131 12.5686 50
    endloop
  endfacet
  facet normal 0 0 1
    outer loop
      vertex 3.30869 32.5686 50
      vertex 13.0902 49.5106 50
      vertex 11.0453 49.9452 50
    endloop
  endfacet
  facet normal 0 0 1
    outer loop
      vertex 0.864545 35.9326 50
      vertex 6.90983 49.5106 50
      vertex 5 48.6603 50
    endloop
  endfacet
  facet normal 0 0 1
    outer loop
      vertex -9.13546 15.9326 50
      vertex -8.09017 14.1221 50
      vertex -6.69131 27.4314 50
    endloop
  endfacet
  facet normal 0 0 1
    outer loop
      vertex 0 40 50
      vertex 0.218524 37.9209 50
      vertex 1.90983 45.8779 50
    endloop
  endfacet
  facet normal 0 0 1
    outer loop
      vertex 0.864545 44.0674 50
      vertex 0 40 50
      vertex 1.90983 45.8779 50
    endloop
  endfacet
  facet normal 0 0 1
    outer loop
      vertex -9.13546 15.9326 50
      vertex -6.69131 27.4314 50
      vertex -8.09017 25.8779 50
    endloop
  endfacet
  facet normal 0 0 1
    outer loop
      vertex 1.90983 45.8779 50
      vertex 0.218524 37.9209 50
      vertex 3.30869 47.4314 50
    endloop
  endfacet
  facet normal 0 0 1
    outer loop
      vertex -6.69131 12.5686 50
      vertex 1.04529 29.9452 50
      vertex -1.04529 29.9452 50
    endloop
  endfacet
  facet normal 0 0 1
    outer loop
      vertex 3.30869 47.4314 50
      vertex 0.864545 35.9326 50
      vertex 5 48.6603 50
    endloop
  endfacet
  facet normal 0 0 1
    outer loop
      vertex 6.90983 49.5106 50
      vertex 1.90983 34.1221 50
      vertex 8.95471 49.9452 50
    endloop
  endfacet
  facet normal 0 0 1
    outer loop
      vertex 8.95471 49.9452 50
      vertex 3.30869 32.5686 50
      vertex 11.0453 49.9452 50
    endloop
  endfacet
  facet normal 0 0 1
    outer loop
      vertex 13.0902 49.5106 50
      vertex 5 31.3397 50
      vertex 15 48.6603 50
    endloop
  endfacet
  facet normal 0 0 1
    outer loop
      vertex 15 48.6603 50
      vertex 6.71507 30.5761 50
      vertex 16.6913 47.4314 50
    endloop
  endfacet
  facet normal 0 0 1
    outer loop
      vertex 4.80812 28.7457 50
      vertex 3.09017 29.5106 50
      vertex -5 11.3397 50
    endloop
  endfacet
  facet normal 0 0 1
    outer loop
      vertex -5 8.66025 50
      vertex -6.69131 7.43145 50
      vertex -9.78148 2.07912 50
    endloop
  endfacet
  facet normal 0 0 1
    outer loop
      vertex 6.71507 30.5761 50
      vertex 18.0902 45.8779 50
      vertex 16.6913 47.4314 50
    endloop
  endfacet
  facet normal 0 0 1
    outer loop
      vertex -8.09017 5.87785 50
      vertex -9.13546 4.06737 50
      vertex -9.78148 2.07912 50
    endloop
  endfacet
  facet normal 0 0 1
    outer loop
      vertex -8.09017 14.1221 50
      vertex -3.09017 29.5106 50
      vertex -5 28.6603 50
    endloop
  endfacet
  facet normal 0 0 1
    outer loop
      vertex -9.78148 17.9209 50
      vertex -9.13546 15.9326 50
      vertex -9.13546 24.0674 50
    endloop
  endfacet
  facet normal 0 0 1
    outer loop
      vertex -9.78148 22.0791 50
      vertex -9.78148 17.9209 50
      vertex -9.13546 24.0674 50
    endloop
  endfacet
  facet normal 0 0 1
    outer loop
      vertex -9.13546 24.0674 50
      vertex -9.13546 15.9326 50
      vertex -8.09017 25.8779 50
    endloop
  endfacet
  facet normal 0 0 1
    outer loop
      vertex -6.69131 27.4314 50
      vertex -8.09017 14.1221 50
      vertex -5 28.6603 50
    endloop
  endfacet
  facet normal 0 0 1
    outer loop
      vertex -5 11.3397 50
      vertex 5.96674 30.0325 50
      vertex 4.80812 28.7457 50
    endloop
  endfacet
  facet normal 0 0 1
    outer loop
      vertex 20 40 50
      vertex -3.09017 10.4894 50
      vertex 19.7815 37.9209 50
    endloop
  endfacet
  facet normal 0 0 1
    outer loop
      vertex 21.75 31.6913 50
      vertex -1.04529 10.0548 50
      vertex 24.0333 30.0325 50
    endloop
  endfacet
  facet normal 0 0 1
    outer loop
      vertex 24.0333 30.0325 50
      vertex 0.00575772 10.0548 50
      vertex 25.9217 27.9351 50
    endloop
  endfacet
  facet normal 0 0 1
    outer loop
      vertex 0.00575772 10.0548 50
      vertex 0 10 50
      vertex 25.9217 27.9351 50
    endloop
  endfacet
  facet normal 0 0 1
    outer loop
      vertex -1.04529 9.94522 50
      vertex -3.09017 9.51056 50
      vertex -9.78148 2.07912 50
    endloop
  endfacet
  facet normal 0 0 1
    outer loop
      vertex 0 10 50
      vertex 0.00575772 9.94522 50
      vertex 25.9217 27.9351 50
    endloop
  endfacet
  facet normal 0 0 1
    outer loop
      vertex 0.00575772 9.94522 50
      vertex -1.04529 9.94522 50
      vertex -9.78148 2.07912 50
    endloop
  endfacet
  facet normal 0 0 1
    outer loop
      vertex -3.09017 9.51056 50
      vertex -5 8.66025 50
      vertex -9.78148 2.07912 50
    endloop
  endfacet
  facet normal 0 0 1
    outer loop
      vertex -3.09017 10.4894 50
      vertex 19.1355 35.9326 50
      vertex 19.7815 37.9209 50
    endloop
  endfacet
  facet normal 0 0 1
    outer loop
      vertex -3.09017 10.4894 50
      vertex 17.2944 33.2383 50
      vertex 19.1355 35.9326 50
    endloop
  endfacet
  facet normal 0 0 1
    outer loop
      vertex 5 31.3397 50
      vertex 6.71507 30.5761 50
      vertex 15 48.6603 50
    endloop
  endfacet
  facet normal 0 0 1
    outer loop
      vertex 1.90983 34.1221 50
      vertex 3.30869 32.5686 50
      vertex 8.95471 49.9452 50
    endloop
  endfacet
  facet normal 0 0 1
    outer loop
      vertex -10 20 50
      vertex -9.78148 17.9209 50
      vertex -9.78148 22.0791 50
    endloop
  endfacet
  facet normal 0 0 1
    outer loop
      vertex 0.218524 42.0791 50
      vertex 0 40 50
      vertex 0.864545 44.0674 50
    endloop
  endfacet
  facet normal 0 0 1
    outer loop
      vertex 0.218524 37.9209 50
      vertex 0.864545 35.9326 50
      vertex 3.30869 47.4314 50
    endloop
  endfacet
  facet normal 0 0 1
    outer loop
      vertex 0.864545 35.9326 50
      vertex 1.90983 34.1221 50
      vertex 6.90983 49.5106 50
    endloop
  endfacet
  facet normal 0 0 1
    outer loop
      vertex 3.30869 32.5686 50
      vertex 5 31.3397 50
      vertex 13.0902 49.5106 50
    endloop
  endfacet
  facet normal 0 0 1
    outer loop
      vertex -6.69131 12.5686 50
      vertex 3.09017 29.5106 50
      vertex 1.04529 29.9452 50
    endloop
  endfacet
  facet normal 0 0 1
    outer loop
      vertex -6.69131 12.5686 50
      vertex -5 11.3397 50
      vertex 3.09017 29.5106 50
    endloop
  endfacet
  facet normal 0 0 1
    outer loop
      vertex -5 11.3397 50
      vertex 18.0902 45.8779 50
      vertex 6.71507 30.5761 50
    endloop
  endfacet
  facet normal 0 0 1
    outer loop
      vertex -5 11.3397 50
      vertex 19.1355 44.0674 50
      vertex 18.0902 45.8779 50
    endloop
  endfacet
  facet normal 0 0 1
    outer loop
      vertex -5 11.3397 50
      vertex 19.7815 42.0791 50
      vertex 19.1355 44.0674 50
    endloop
  endfacet
  facet normal 0 0 1
    outer loop
      vertex -5 11.3397 50
      vertex 20 40 50
      vertex 19.7815 42.0791 50
    endloop
  endfacet
  facet normal 0 0 1
    outer loop
      vertex -5 11.3397 50
      vertex -3.09017 10.4894 50
      vertex 20 40 50
    endloop
  endfacet
endsolid OpenSCAD_Model
